<?xml version="1.0" encoding="UTF-8" standalone="no"?>
<svg
   xmlns:dc="http://purl.org/dc/elements/1.1/"
   xmlns:cc="http://creativecommons.org/ns#"
   xmlns:rdf="http://www.w3.org/1999/02/22-rdf-syntax-ns#"
   xmlns:svg="http://www.w3.org/2000/svg"
   xmlns="http://www.w3.org/2000/svg"
   xmlns:sodipodi="http://sodipodi.sourceforge.net/DTD/sodipodi-0.dtd"
   xmlns:inkscape="http://www.inkscape.org/namespaces/inkscape"
   id="Capa_1"
   data-name="Capa 1"
   viewBox="0 0 150 25.26"
   version="1.1"
   sodipodi:docname="logo-silestone-web-crop.svg"
   inkscape:version="1.0.2-2 (e86c870879, 2021-01-15)">
  <metadata
     id="metadata33">
    <rdf:RDF>
      <cc:Work
         rdf:about="">
        <dc:format>image/svg+xml</dc:format>
        <dc:type
           rdf:resource="http://purl.org/dc/dcmitype/StillImage" />
        <dc:title></dc:title>
      </cc:Work>
    </rdf:RDF>
  </metadata>
  <sodipodi:namedview
     pagecolor="#ffffff"
     bordercolor="#666666"
     borderopacity="1"
     objecttolerance="10"
     gridtolerance="10"
     guidetolerance="10"
     inkscape:pageopacity="0"
     inkscape:pageshadow="2"
     inkscape:window-width="1920"
     inkscape:window-height="1017"
     id="namedview31"
     showgrid="false"
     inkscape:zoom="6.78"
     inkscape:cx="75"
     inkscape:cy="12.63"
     inkscape:window-x="-8"
     inkscape:window-y="-8"
     inkscape:window-maximized="1"
     inkscape:current-layer="Capa_1" />
  <defs
     id="defs4">
    <style
       id="style2">.cls-1{fill:#1e1e1c;}.cls-2{fill:#ff4438;}</style>
  </defs>
  <path
     class="cls-1"
     d="m 85.067636,12.135601 a 6.3709987,6.3709987 0 0 1 -6.5627,6.593335 6.4399988,6.4399988 0 0 1 -6.570319,-6.60866 6.5703324,6.5703324 0 1 1 13.133019,0 z m -2.890363,-0.07661 a 4.0403331,4.0403331 0 0 0 -0.391003,-1.878335 3.5803332,3.5803332 0 0 0 -6.493652,-0.114999 4.6459991,4.6459991 0 0 0 -0.245339,3.380998 3.5343332,3.5343332 0 0 0 4.285657,2.583669 c 1.724997,-0.360334 2.859715,-1.901334 2.859715,-3.971332 z"
     id="path6"
     style="stroke-width:0.76666" />
  <path
     class="cls-1"
     d="m 88.801275,7.1599399 c 1.740353,-2.2539996 5.818992,-2.1389996 7.375377,-0.3066663 a 4.8146655,4.8146655 0 0 1 1.188245,3.2046654 c 0,2.644999 0,8.379663 0,8.379663 h -2.905633 c 0,0 0,-5.198 0,-7.544 0,-0.161 0,-0.322 0,-0.475325 -0.160993,-1.533338 -0.97361,-2.392003 -2.376623,-2.4456713 a 2.7523331,2.7523331 0 0 0 -2.99002,2.2999993 7.4979986,7.4979986 0 0 0 -0.06874,1.241997 c 0,2.116 0,6.938336 0,6.938336 H 86.071989 V 5.7799401 h 2.706358 c 0,0 0.02318,1.0579998 0.02318,1.3799998 z"
     id="path8"
     style="stroke-width:0.76666" />
  <path
     class="cls-1"
     d="M 41.290946,3.6026068 V 1.179941 l -2.882662,0.8816664 c 0,5.366666 0,11.0476686 0,16.3759946 h 2.898001 c -0.023,-4.761 -0.01532,-10.073996 -0.01532,-14.8349952 z"
     id="path10"
     style="stroke-width:0.76666" />
  <path
     class="cls-1"
     d="M 70.117616,5.7799401 V 3.2269407 h -2.921 v 2.5529994 h -1.104 V 8.187274 h 1.081 v 10.250328 h 2.921 V 8.187274 h 1.748002 a 7.5516647,7.5516647 0 0 1 1.15,-1.5640003 7.3216647,7.3216647 0 0 1 1.065661,-0.8433336 z"
     id="path12"
     style="stroke-width:0.76666" />
  <path
     class="cls-1"
     d="m 31.868622,14.481602 c -0.09967,-1.533326 -1.011999,-2.560664 -2.744673,-3.066663 -0.620999,-0.191663 -1.272662,-0.299 -1.901326,-0.452338 A 6.5319988,6.5319988 0 0 1 25.183289,10.379938 1.1423334,1.1423334 0 0 1 25.014625,8.51694 2.5759995,2.5759995 0 0 1 28.84795,9.229939 v 0.06136 c 0.06139,0.122663 0.115,0.260665 0.115,0.260665 l 0.122672,-0.03837 2.499327,-0.766666 a 0.49066655,0.49066655 0 0 0 0,-0.130333 4.0863331,4.0863331 0 0 0 -1.909001,-2.2999998 6.1333325,6.1333325 0 0 0 -5.841997,0 3.7183332,3.7183332 0 0 0 -1.993327,3.8333318 3.2429994,3.2429994 0 0 0 2.721663,2.813663 c 1.111663,0.260674 2.238663,0.475336 3.335,0.766674 0.766662,0.214661 1.157663,0.659324 1.165336,1.234324 a 1.5333334,1.5333334 0 0 1 -1.188337,1.448998 3.6033331,3.6033331 0 0 1 -1.111663,0.191674 h -0.276 -0.138 a 3.2353332,3.2353332 0 0 1 -2.299998,-1.648341 v 0 l -2.560675,0.766663 a 4.5999991,4.5999991 0 0 0 2.606674,2.660337 6.9613323,6.9613323 0 0 0 5.420324,-0.115 3.6033331,3.6033331 0 0 0 2.353674,-3.787336 z"
     id="path14"
     style="stroke-width:0.76666" />
  <path
     class="cls-1"
     d="m 65.793617,14.481602 c -0.107337,-1.533326 -1.012001,-2.560664 -2.752337,-3.066663 -0.620998,-0.191663 -1.264999,-0.299 -1.901337,-0.452338 A 6.4859988,6.4859988 0 0 1 59.108282,10.379938 1.1423334,1.1423334 0 0 1 58.939618,8.51694 2.5683332,2.5683332 0 0 1 62.772942,9.229939 v 0.06136 c 0.0614,0.122663 0.115001,0.260665 0.115001,0.260665 l 0.115,-0.03837 2.506999,-0.766666 a 1.180666,1.180666 0 0 0 0,-0.130333 4.1476653,4.1476653 0 0 0 -1.908999,-2.2999995 6.1793325,6.1793325 0 0 0 -5.849664,0 3.7336654,3.7336654 0 0 0 -1.993335,3.8333315 3.2429994,3.2429994 0 0 0 2.729337,2.813663 c 1.111662,0.260674 2.231,0.475336 3.334999,0.766674 0.766663,0.214661 1.15,0.659324 1.165337,1.234324 a 1.5333334,1.5333334 0 0 1 -1.188336,1.449 3.6876653,3.6876653 0 0 1 -1.111663,0.191675 h -0.268337 -0.145664 a 3.2199995,3.2199995 0 0 1 -2.254,-1.648341 v 0 l -2.568336,0.766663 a 4.5999991,4.5999991 0 0 0 2.614337,2.660337 6.9459988,6.9459988 0 0 0 5.412662,-0.115 3.6033331,3.6033331 0 0 0 2.315337,-3.787335 z"
     id="path16"
     style="stroke-width:0.76666" />
  <path
     class="cls-1"
     d="M 54.799619,10.249605 C 53.580619,5.0746065 47.80762,4.369274 44.832945,6.8302736 a 7.2296647,7.2296647 0 0 0 -1.740322,8.2340024 5.8573326,5.8573326 0 0 0 5.73466,3.64166 5.8573326,5.8573326 0 0 0 5.366663,-3.005334 v 0 l -2.568327,-0.766663 v 0 c 0,0 -0.168673,0.153337 -0.321999,0.298999 a 3.4729993,3.4729993 0 0 1 -5.826673,-1.602336 c -0.176325,-0.644001 -0.138001,-0.667 -0.138001,-0.667 h 9.529673 a 8.1879989,8.1879989 0 0 0 -0.069,-2.713997 z m -2.721673,0.505997 c -0.966001,0 -2.369,0 -3.334999,0 -0.966,0 -2.361326,0 -3.327326,0 0,0 0,-0.06139 0.08436,-0.436998 a 3.3273333,3.3273333 0 0 1 3.35034,-2.4609983 3.1586655,3.1586655 0 0 1 3.158661,2.4379993 1.778666,1.778666 0 0 1 0.069,0.459997 z"
     id="path18"
     style="stroke-width:0.76666" />
  <path
     class="cls-1"
     d="m 110.88127,10.249605 c -1.219,-5.1749985 -6.98436,-5.880331 -9.96662,-3.4193314 a 7.2143326,7.2143326 0 0 0 -1.75575,8.2340024 6.3326651,6.3326651 0 0 0 11.11674,0.636326 v 0 l -2.56074,-0.766663 v 0 c 0,0 -0.16862,0.153337 -0.32199,0.298999 a 3.4729993,3.4729993 0 0 1 -5.82664,-1.602336 c -0.17636,-0.644001 -0.13801,-0.667 -0.13801,-0.667 h 9.53738 a 8.1879989,8.1879989 0 0 0 -0.0842,-2.713997 z m -2.72162,0.505997 c -0.966,0 -2.369,0 -3.33501,0 -0.96599,0 -2.36137,0 -3.32737,0 0,0 0,-0.06139 0.084,-0.436998 a 3.3273333,3.3273333 0 0 1 3.35025,-2.4609983 3.1586655,3.1586655 0 0 1 3.15876,2.4379993 1.778666,1.778666 0 0 1 0.0685,0.459997 z"
     id="path20"
     style="stroke-width:0.76666" />
  <rect
     class="cls-1"
     x="33.379021"
     y="8.0109301"
     width="2.9286683"
     height="10.426679"
     id="rect22"
     style="stroke-width:0.76666" />
  <circle
     class="cls-1"
     cx="34.820305"
     cy="4.7526097"
     id="circle24"
     r="1.6483328"
     style="stroke-width:0.76666" />
  <path
     class="cls-1"
     d="m 115.15927,7.6506057 a 1.663666,1.663666 0 1 1 -1.66363,-1.6713319 1.663666,1.663666 0 0 1 1.66363,1.6713319 z m -0.20701,0 a 1.4566863,1.4566863 0 1 0 -2.91336,0 1.4566863,1.4566863 0 1 0 2.91336,0 z m -0.76663,0.8510003 h -0.23 l -0.36799,-0.6900003 h -0.43699 V 8.501606 H 112.9359 V 6.7919399 h 0.60574 a 0.52133328,0.52133328 0 0 1 0.575,0.5060001 0.50599989,0.50599989 0 0 1 -0.322,0.4676657 z m -1.03498,-0.8970004 h 0.39099 c 0.253,0 0.368,-0.1226658 0.368,-0.3066656 0,-0.1840001 -0.115,-0.299 -0.368,-0.299 h -0.39099 z"
     id="path26"
     style="stroke-width:0.76666" />
  <path
     class="cls-2"
     d="m 13.759953,20.545938 a 1.7173334,1.7173334 0 0 0 1.004336,-0.337336 c 2.897998,-1.916664 2.997663,-5.512327 0.851,-9.046664 -1.709663,-2.813665 -1.364661,-5.2516642 0.06143,-7.2986639 A 0.13033334,0.13033334 0 0 0 15.576952,3.6562742 H 0.28962503 A 0.13033334,0.13033334 0 0 0 0.159292,3.7866068 V 20.4156 a 0.13799997,0.13799997 0 0 0 0.13033303,0.130338 z"
     id="path28"
     style="stroke-width:0.76666" />
</svg>
